# Blender v2.79 (sub 0) OBJ File: 'enviroment.blend'
# www.blender.org
mtllib enviroment.mtl
o Plane.011_Plane.025
v 0.330913 0.000001 0.488915
v 2.343276 0.000001 0.488915
v 0.330913 0.000001 -0.011085
v 2.343276 0.000001 -0.011085
v -0.669086 0.000001 -1.511085
v 2.843276 0.000001 -1.511085
v -0.669086 0.000001 -2.011085
v 2.843276 0.000001 -2.011085
v -0.669086 0.000001 2.488915
v 1.343276 0.000001 2.488915
v -0.669086 0.000001 1.988915
v 1.343276 0.000001 1.988915
v -0.169087 0.000001 2.488915
v 0.343276 0.000001 2.488915
v -0.169087 0.000001 1.988915
v 0.343276 0.000001 1.988915
v 2.830913 0.000001 4.488915
v 4.343276 0.000001 4.488915
v 2.830913 0.000001 3.988915
v 4.343276 0.000001 3.988915
v -4.669086 0.000001 4.488915
v -2.656724 0.000001 4.488915
v -4.669086 0.000001 3.988915
v -2.656724 0.000001 3.988915
v 3.830913 0.000001 3.988915
v 4.343276 0.000001 3.988915
v 3.830913 0.000001 -4.011085
v 4.343276 0.000001 -4.011085
v 3.330913 0.000001 3.988915
v 3.843276 0.000001 3.988915
v 3.330913 0.000001 3.988915
v 3.843276 0.000001 3.988915
v -4.669086 0.000001 -4.011085
v 4.343276 0.000001 -4.011085
v -4.669086 0.000001 -4.511085
v 4.343276 0.000001 -4.511085
v -4.669086 0.000001 3.988915
v -4.156724 0.000001 3.988915
v -4.669086 0.000001 -4.011085
v -4.156724 0.000001 -4.011085
v -1.169086 0.000001 2.488915
v -0.656724 0.000001 2.488915
v -1.169086 0.000001 -0.011085
v -0.656724 0.000001 -0.011085
v -1.169086 0.000001 2.488915
v -0.656724 0.000001 2.488915
v -1.169086 0.000001 1.988915
v -0.656724 0.000001 1.988915
v 2.849869 0.000000 4.500000
v 2.849869 0.000000 0.000000
v 2.349869 0.000000 4.500000
v 2.349869 0.000000 0.000000
v 2.599869 0.000000 0.000000
v 2.474869 0.000000 0.000000
v 2.724869 0.000000 0.000000
v 2.412369 0.000000 0.000000
v 2.662369 0.000000 0.000000
v 2.537369 0.000000 0.000000
v 2.787369 0.000000 0.000000
v 2.849869 0.000000 4.500000
v 2.849869 0.000000 0.000000
v -2.150130 0.000000 2.000000
v -2.150130 0.000000 -2.500000
v -2.650130 0.000000 2.000000
v -2.650130 0.000000 -2.500000
v -2.400130 0.000000 -2.500000
v -2.525130 0.000000 -2.500000
v -2.275130 0.000000 -2.500000
v -2.587630 0.000000 -2.500000
v -2.337630 0.000000 -2.500000
v -2.462630 0.000000 -2.500000
v -2.212630 0.000000 -2.500000
v -2.150130 0.000000 2.000000
v -2.150130 0.000000 -2.500000
v -2.150130 0.000000 4.500000
v -2.150130 0.000000 0.000000
v -2.650130 0.000000 4.500000
v -2.650130 0.000000 0.000000
v -2.400130 0.000000 0.000000
v -2.525130 0.000000 0.000000
v -2.275130 0.000000 0.000000
v -2.587630 0.000000 0.000000
v -2.337630 0.000000 0.000000
v -2.462630 0.000000 0.000000
v -2.212630 0.000000 0.000000
v -2.150130 0.000000 4.500000
v -2.150130 0.000000 0.000000
v -2.150130 0.000000 4.500000
v 2.349869 0.000000 4.500000
v -2.150130 0.000000 4.000000
v 2.349869 0.000000 4.000000
v 2.349869 0.000000 4.250000
v 2.349869 0.000000 4.125000
v 2.349869 0.000000 4.375000
v 2.349869 0.000000 4.062500
v 2.349869 0.000000 4.312500
v 2.349869 0.000000 4.187500
v 2.349869 0.000000 4.437500
v -2.150130 0.000000 4.500000
v 2.349869 0.000000 4.500000
v 0.330913 1.000001 -0.011085
v 0.330913 1.000001 0.488915
v 2.343276 1.000001 0.488915
v 2.343276 1.000001 -0.011085
v -0.669086 1.000001 -2.011085
v -0.669086 1.000001 -1.511085
v 2.843276 1.000001 -1.511085
v 2.843276 1.000001 -2.011085
v -0.669086 1.000001 1.988915
v -0.669086 1.000001 2.488915
v 1.343276 1.000001 2.488915
v 1.343276 1.000001 1.988915
v -0.169087 1.000001 1.988915
v -0.169087 1.000001 2.488915
v 0.343276 1.000001 2.488915
v 0.343276 1.000001 1.988915
v 2.830913 1.000001 3.988915
v 2.830913 1.000001 4.488915
v 4.343276 1.000001 4.488915
v 4.343276 1.000001 3.988915
v -4.669086 1.000001 3.988915
v -4.669086 1.000001 4.488915
v -2.656724 1.000001 4.488915
v -2.656724 1.000001 3.988915
v 3.830913 1.000001 -4.011085
v 3.830913 1.000001 3.988915
v 4.343276 1.000001 3.988915
v 4.343276 1.000001 -4.011085
v -4.669086 1.000001 -4.511085
v -4.669086 1.000001 -4.011085
v 4.343276 1.000001 -4.011085
v 4.343276 1.000001 -4.511085
v -4.669086 1.000001 -4.011085
v -4.669086 1.000001 3.988915
v -4.156724 1.000001 3.988915
v -4.156724 1.000001 -4.011085
v -1.169086 1.000001 -0.011085
v -1.169086 1.000001 2.488915
v -0.656724 1.000001 2.488915
v -0.656724 1.000001 -0.011085
v -1.169086 1.000001 1.988915
v -1.169086 1.000001 2.488915
v -0.656724 1.000001 2.488915
v -0.656724 1.000001 1.988915
v 2.349869 1.000000 4.500000
v 2.849869 1.000000 4.500000
v 2.849869 1.000000 0.000000
v 2.412369 1.000000 0.000000
v 2.349869 1.000000 0.000000
v 2.662369 1.000000 0.000000
v 2.599869 1.000000 0.000000
v 2.537369 1.000000 0.000000
v 2.474869 1.000000 0.000000
v 2.787369 1.000000 0.000000
v 2.724869 1.000000 0.000000
v -2.650130 1.000000 2.000000
v -2.150130 1.000000 2.000000
v -2.150130 1.000000 -2.500000
v -2.587630 1.000000 -2.500000
v -2.650130 1.000000 -2.500000
v -2.337630 1.000000 -2.500000
v -2.400130 1.000000 -2.500000
v -2.462630 1.000000 -2.500000
v -2.525130 1.000000 -2.500000
v -2.212630 1.000000 -2.500000
v -2.275130 1.000000 -2.500000
v -2.650130 1.000000 4.500000
v -2.150130 1.000000 4.500000
v -2.150130 1.000000 0.000000
v -2.587630 1.000000 0.000000
v -2.650130 1.000000 0.000000
v -2.337630 1.000000 0.000000
v -2.400130 1.000000 0.000000
v -2.462630 1.000000 0.000000
v -2.525130 1.000000 0.000000
v -2.212630 1.000000 0.000000
v -2.275130 1.000000 0.000000
v -2.150130 1.000000 4.000000
v -2.150130 1.000000 4.500000
v 2.349869 1.000000 4.500000
v 2.349869 1.000000 4.062500
v 2.349869 1.000000 4.000000
v 2.349869 1.000000 4.312500
v 2.349869 1.000000 4.250000
v 2.349869 1.000000 4.187500
v 2.349869 1.000000 4.125000
v 2.349869 1.000000 4.437500
v 2.349869 1.000000 4.375000
v -4.650130 0.000000 4.500000
v 4.349869 0.000000 4.500000
v -4.650130 0.000000 -4.500000
v 4.349869 0.000000 -4.500000
vt 0.705369 0.971336
vt 0.675979 0.971336
vt 0.675979 0.853048
vt 0.705369 0.853048
vt 0.999273 0.676706
vt 0.969883 0.676706
vt 0.969883 0.470246
vt 0.999273 0.470246
vt 0.322568 0.911829
vt 0.293177 0.911829
vt 0.293177 0.793541
vt 0.322568 0.793541
vt 0.617198 0.941219
vt 0.646588 0.941219
vt 0.646588 0.971336
vt 0.617198 0.971336
vt 0.734760 0.853048
vt 0.764150 0.853048
vt 0.764150 0.941946
vt 0.734760 0.941946
vt 0.911102 0.794267
vt 0.940492 0.794267
vt 0.940492 0.912556
vt 0.911102 0.912556
vt 0.764150 0.940493
vt 0.764150 0.470246
vt 0.794267 0.470246
vt 0.794267 0.940493
vt 0.940493 0.529754
vt 0.911102 0.529754
vt 0.911102 0.000000
vt 0.940493 0.000000
vt 0.794267 0.940493
vt 0.794267 0.470246
vt 0.824384 0.470246
vt 0.824385 0.940493
vt 0.235123 0.940493
vt 0.235123 0.793541
vt 0.265240 0.793541
vt 0.265240 0.940493
vt 0.558417 0.941219
vt 0.587807 0.941219
vt 0.587807 0.971336
vt 0.558417 0.971336
vt 0.911102 0.529754
vt 0.940493 0.529754
vt 0.940493 0.794267
vt 0.936819 0.794267
vt 0.933145 0.794267
vt 0.929471 0.794267
vt 0.925797 0.794267
vt 0.922124 0.794267
vt 0.918450 0.794267
vt 0.914776 0.794267
vt 0.911102 0.794267
vt 0.617198 0.941219
vt 0.587807 0.941219
vt 0.587807 0.676706
vt 0.591481 0.676706
vt 0.595155 0.676706
vt 0.598829 0.676706
vt 0.602503 0.676706
vt 0.606176 0.676706
vt 0.609850 0.676706
vt 0.613524 0.676706
vt 0.617198 0.676706
vt 0.911102 0.794267
vt 0.881712 0.794267
vt 0.881712 0.529754
vt 0.885385 0.529754
vt 0.889059 0.529754
vt 0.892733 0.529754
vt 0.896407 0.529754
vt 0.900081 0.529754
vt 0.903754 0.529754
vt 0.907428 0.529754
vt 0.911102 0.529754
vt 0.940493 0.470246
vt 0.969883 0.470246
vt 0.969883 0.734760
vt 0.966209 0.734760
vt 0.962535 0.734760
vt 0.958862 0.734760
vt 0.955188 0.734760
vt 0.951514 0.734760
vt 0.947840 0.734760
vt 0.944166 0.734760
vt 0.940493 0.734760
vt 0.881712 0.912556
vt 0.881712 0.794267
vt 0.911102 0.794267
vt 0.911102 0.912556
vt 0.940493 0.941219
vt 0.940493 0.734760
vt 0.969883 0.734760
vt 0.969883 0.941219
vt 0.499637 0.793541
vt 0.499637 0.911829
vt 0.470246 0.911829
vt 0.470246 0.793541
vt 0.617198 0.941219
vt 0.617198 0.971336
vt 0.587807 0.971336
vt 0.587807 0.941219
vt 0.734760 0.853048
vt 0.734760 0.941946
vt 0.705369 0.941946
vt 0.705369 0.853048
vt 0.675979 0.853048
vt 0.675979 0.971336
vt 0.646588 0.971336
vt 0.646588 0.853048
vt 0.940493 0.000000
vt 0.970610 0.000000
vt 0.970610 0.470246
vt 0.940493 0.470246
vt 0.881712 0.529754
vt 0.881712 0.000000
vt 0.911102 0.000000
vt 0.911102 0.529754
vt 0.824385 0.470246
vt 0.854502 0.470246
vt 0.854502 0.940493
vt 0.824385 0.940493
vt 0.352685 0.940493
vt 0.322568 0.940493
vt 0.322568 0.793541
vt 0.352685 0.793541
vt 0.558417 0.941219
vt 0.558417 0.971336
vt 0.529027 0.971336
vt 0.529027 0.941219
vt 0.529027 0.941219
vt 0.529027 0.676706
vt 0.532701 0.676706
vt 0.536374 0.676706
vt 0.540048 0.676706
vt 0.543722 0.676706
vt 0.547396 0.676706
vt 0.551069 0.676706
vt 0.554743 0.676706
vt 0.558417 0.676706
vt 0.558417 0.941219
vt 0.587807 0.676706
vt 0.587807 0.941219
vt 0.584134 0.941219
vt 0.580460 0.941219
vt 0.576786 0.941219
vt 0.573112 0.941219
vt 0.569438 0.941219
vt 0.565765 0.941219
vt 0.562091 0.941219
vt 0.558417 0.941219
vt 0.558417 0.676706
vt 0.617198 0.941219
vt 0.617198 0.676706
vt 0.620872 0.676706
vt 0.624545 0.676706
vt 0.628219 0.676706
vt 0.631893 0.676706
vt 0.635567 0.676706
vt 0.639241 0.676706
vt 0.642914 0.676706
vt 0.646588 0.676706
vt 0.646588 0.941219
vt 0.470246 0.793541
vt 0.470246 0.529027
vt 0.473920 0.529027
vt 0.477594 0.529027
vt 0.481268 0.529027
vt 0.484942 0.529027
vt 0.488615 0.529027
vt 0.492289 0.529027
vt 0.495963 0.529027
vt 0.499637 0.529027
vt 0.499637 0.793541
vt 0.176342 0.529027
vt 0.176342 0.793541
vt 0.117562 0.793541
vt 0.117562 0.529027
vt 0.705369 0.470246
vt 0.705369 0.734760
vt 0.646589 0.734760
vt 0.646588 0.470246
vt 0.646588 0.853048
vt 0.646588 0.734760
vt 0.705369 0.734760
vt 0.705369 0.853048
vt 0.988979 0.058781
vt 0.985305 0.058781
vt 0.985305 0.000000
vt 0.988979 0.000000
vt 0.356359 0.971336
vt 0.352685 0.971336
vt 0.352685 0.912556
vt 0.356359 0.912556
vt 0.911102 0.971336
vt 0.881712 0.971336
vt 0.881712 0.912556
vt 0.911102 0.912556
vt 0.981631 0.058781
vt 0.977957 0.058781
vt 0.977957 0.000000
vt 0.981631 0.000000
vt 0.293904 0.529027
vt 0.293904 0.793541
vt 0.235123 0.793541
vt 0.235123 0.529027
vt 0.000000 0.911829
vt 0.000000 0.793541
vt 0.058781 0.793541
vt 0.058781 0.911829
vt 0.996326 0.058781
vt 0.992652 0.058781
vt 0.992652 0.000000
vt 0.996326 0.000000
vt 0.371054 0.971336
vt 0.367380 0.971336
vt 0.367380 0.912556
vt 0.371054 0.912556
vt 0.764150 0.000000
vt 0.764150 0.470246
vt 0.705369 0.470246
vt 0.705369 0.000000
vt 0.974283 0.058781
vt 0.974283 0.000000
vt 0.363706 0.971336
vt 0.360032 0.971336
vt 0.360032 0.912556
vt 0.363706 0.912556
vt 0.147679 0.941219
vt 0.117562 0.941219
vt 0.117562 0.882438
vt 0.147679 0.882438
vt 0.378401 0.971336
vt 0.374728 0.971336
vt 0.374728 0.912556
vt 0.378401 0.912556
vt 0.705369 0.000000
vt 0.705369 0.470246
vt 0.646589 0.470246
vt 0.646588 0.000000
vt 0.999273 0.970610
vt 0.969883 0.970610
vt 0.969883 0.911829
vt 0.999273 0.911829
vt 0.412919 0.912556
vt 0.382802 0.912556
vt 0.382802 0.853775
vt 0.412919 0.853775
vt 0.352685 0.853775
vt 0.352685 0.735487
vt 0.411465 0.735487
vt 0.411465 0.853775
vt 1.000000 0.058781
vt 1.000000 0.000000
vt 0.176342 0.941219
vt 0.205733 0.941219
vt 0.205733 1.000000
vt 0.176342 1.000000
vt 0.117562 0.793541
vt 0.117562 0.911829
vt 0.058781 0.911829
vt 0.058781 0.793541
vt 0.999273 0.911829
vt 0.969883 0.911829
vt 0.969883 0.853048
vt 0.999273 0.853048
vt 0.382075 0.971336
vt 0.382075 0.912556
vt 1.000000 0.235123
vt 0.970610 0.235123
vt 0.970610 0.176342
vt 1.000000 0.176342
vt 0.999273 0.735486
vt 0.969883 0.735486
vt 0.969883 0.676706
vt 0.999273 0.676706
vt 0.058781 0.793541
vt 0.058781 0.529027
vt 0.117562 0.529027
vt 0.117562 0.793541
vt 0.529027 0.529754
vt 0.529027 0.000000
vt 0.587807 0.000000
vt 0.587808 0.529754
vt 0.411466 0.735486
vt 0.411466 0.529027
vt 0.470246 0.529027
vt 0.470246 0.735486
vt 0.260840 0.940493
vt 0.264514 0.940493
vt 0.264514 0.999273
vt 0.260840 0.999273
vt 1.000000 0.117562
vt 0.970610 0.117562
vt 0.970610 0.058781
vt 1.000000 0.058781
vt 0.412192 0.971336
vt 0.382802 0.971336
vt 0.382802 0.912556
vt 0.412192 0.912556
vt 0.940492 0.971336
vt 0.911102 0.971336
vt 0.911102 0.912556
vt 0.940492 0.912556
vt 0.058781 0.529027
vt 0.058781 0.793541
vt 0.000000 0.793541
vt 0.000000 0.529027
vt 0.352685 0.529027
vt 0.352685 0.793541
vt 0.293904 0.793541
vt 0.293904 0.529027
vt 0.646588 0.000000
vt 0.646588 0.529754
vt 0.587808 0.529754
vt 0.587808 0.000000
vt 0.411465 0.529027
vt 0.411466 0.735486
vt 0.352685 0.735486
vt 0.352685 0.529027
vt 0.246145 0.940493
vt 0.249818 0.940493
vt 0.249818 0.999273
vt 0.246145 0.999273
vt 0.798668 0.999274
vt 0.794994 0.999274
vt 0.794994 0.940493
vt 0.798668 0.940493
vt 0.881712 0.000000
vt 0.881712 0.470246
vt 0.822931 0.470246
vt 0.822931 0.000000
vt 0.793541 0.999273
vt 0.764150 0.999273
vt 0.764150 0.940493
vt 0.793541 0.940493
vt 0.253492 0.940493
vt 0.257166 0.940493
vt 0.257166 0.999273
vt 0.253492 0.999273
vt 0.235123 0.529027
vt 0.235123 0.793541
vt 0.176342 0.793541
vt 0.176342 0.529027
vt 0.090351 0.970610
vt 0.060234 0.970610
vt 0.060234 0.911829
vt 0.090351 0.911829
vt 0.705369 0.853048
vt 0.705369 0.734760
vt 0.764150 0.734760
vt 0.764150 0.853048
vt 0.238797 0.940493
vt 0.242471 0.940493
vt 0.242471 0.999273
vt 0.238797 0.999273
vt 0.813363 0.999274
vt 0.809689 0.999274
vt 0.809689 0.940493
vt 0.813363 0.940493
vt 0.822931 0.000000
vt 0.822931 0.470246
vt 0.764150 0.470246
vt 0.764150 0.000000
vt 0.969883 0.794267
vt 0.999273 0.794267
vt 0.999273 0.853048
vt 0.969883 0.853048
vt 0.806015 0.999274
vt 0.802342 0.999274
vt 0.802342 0.940493
vt 0.806015 0.940493
vt 0.322568 0.970610
vt 0.292451 0.970610
vt 0.292451 0.911829
vt 0.322568 0.911829
vt 0.470246 0.735487
vt 0.470246 0.853775
vt 0.411466 0.853775
vt 0.411466 0.735487
vt 0.820711 0.999273
vt 0.817037 0.999273
vt 0.817037 0.940493
vt 0.820711 0.940493
vt 0.646588 0.529754
vt 0.646588 0.676706
vt 0.587808 0.676706
vt 0.587808 0.529754
vt 0.853775 0.999273
vt 0.824385 0.999273
vt 0.824385 0.940493
vt 0.853775 0.940493
vt 0.060234 0.970610
vt 0.030117 0.970610
vt 0.030117 0.911829
vt 0.060234 0.911829
vt 0.382802 0.912556
vt 0.352685 0.912556
vt 0.352685 0.853775
vt 0.382802 0.853775
vt 0.235123 0.940493
vt 0.235123 0.999273
vt 0.587807 0.529754
vt 0.587807 0.676706
vt 0.529027 0.676706
vt 0.529027 0.529754
vt 0.351958 0.999273
vt 0.322568 0.999273
vt 0.322568 0.940493
vt 0.351958 0.940493
vt 0.207913 0.941219
vt 0.177796 0.941219
vt 0.177796 0.882438
vt 0.207913 0.882438
vt 0.443036 0.912556
vt 0.412919 0.912556
vt 0.412919 0.853775
vt 0.443036 0.853775
vt 0.824385 0.999273
vt 0.824385 0.940493
vt 0.441583 0.971336
vt 0.412192 0.971336
vt 0.412192 0.912556
vt 0.441583 0.912556
vt 0.146952 1.000000
vt 0.117562 1.000000
vt 0.117562 0.941219
vt 0.146952 0.941219
vt 0.030117 0.970610
vt 0.000000 0.970610
vt 0.000000 0.911829
vt 0.030117 0.911829
vt 0.117562 0.882438
vt 0.117562 0.793541
vt 0.176342 0.793541
vt 0.176342 0.882438
vt 0.176342 1.000000
vt 0.146952 1.000000
vt 0.146952 0.941219
vt 0.176342 0.941219
vt 0.499637 0.970610
vt 0.470246 0.970610
vt 0.470246 0.911829
vt 0.499637 0.911829
vt 1.000000 0.176342
vt 0.970610 0.176342
vt 0.970610 0.117562
vt 1.000000 0.117562
vt 0.764150 0.470246
vt 0.764150 0.734760
vt 0.705369 0.734760
vt 0.705369 0.470246
vt 0.177796 0.941219
vt 0.147679 0.941219
vt 0.147679 0.882438
vt 0.177796 0.882438
vt 0.235123 0.793541
vt 0.235123 0.882438
vt 0.176342 0.882438
vt 0.176342 0.793541
vt 0.970610 0.058781
vt 0.970610 0.000000
vt 0.999273 0.794267
vt 0.969883 0.794267
vt 0.969883 0.735486
vt 0.999273 0.735486
vt 0.235123 1.000000
vt 0.205733 1.000000
vt 0.205733 0.941219
vt 0.235123 0.941219
vt 0.529027 0.000000
vt 0.529027 0.529027
vt 0.000000 0.529027
vt 0.000000 0.000000
vn 0.0000 -1.0000 0.0000
vn 0.0000 1.0000 0.0000
vn -1.0000 0.0000 0.0000
vn 1.0000 0.0000 -0.0000
vn 0.0000 0.0000 1.0000
vn 0.0000 0.0000 -1.0000
usemtl Material
s off
f 1/1/1 3/2/1 4/3/1 2/4/1
f 5/5/1 7/6/1 8/7/1 6/8/1
f 9/9/1 11/10/1 12/11/1 10/12/1
f 13/13/1 15/14/1 16/15/1 14/16/1
f 17/17/1 19/18/1 20/19/1 18/20/1
f 21/21/1 23/22/1 24/23/1 22/24/1
f 25/25/1 27/26/1 28/27/1 26/28/1
f 33/29/1 35/30/1 36/31/1 34/32/1
f 37/33/1 39/34/1 40/35/1 38/36/1
f 41/37/1 43/38/1 44/39/1 42/40/1
f 45/41/1 47/42/1 48/43/1 46/44/1
f 49/45/1 51/46/1 52/47/1 56/48/1 54/49/1 58/50/1 53/51/1 57/52/1 55/53/1 59/54/1 50/55/1
f 62/56/1 64/57/1 65/58/1 69/59/1 67/60/1 71/61/1 66/62/1 70/63/1 68/64/1 72/65/1 63/66/1
f 75/67/1 77/68/1 78/69/1 82/70/1 80/71/1 84/72/1 79/73/1 83/74/1 81/75/1 85/76/1 76/77/1
f 88/78/1 90/79/1 91/80/1 95/81/1 93/82/1 97/83/1 92/84/1 96/85/1 94/86/1 98/87/1 89/88/1
f 102/89/2 103/90/2 104/91/2 101/92/2
f 106/93/2 107/94/2 108/95/2 105/96/2
f 110/97/2 111/98/2 112/99/2 109/100/2
f 114/101/2 115/102/2 116/103/2 113/104/2
f 118/105/2 119/106/2 120/107/2 117/108/2
f 122/109/2 123/110/2 124/111/2 121/112/2
f 126/113/2 127/114/2 128/115/2 125/116/2
f 130/117/2 131/118/2 132/119/2 129/120/2
f 134/121/2 135/122/2 136/123/2 133/124/2
f 138/125/2 139/126/2 140/127/2 137/128/2
f 142/129/2 143/130/2 144/131/2 141/132/2
f 146/133/2 147/134/2 154/135/2 155/136/2 150/137/2 151/138/2 152/139/2 153/140/2 148/141/2 149/142/2 145/143/2
f 157/144/2 158/145/2 165/146/2 166/147/2 161/148/2 162/149/2 163/150/2 164/151/2 159/152/2 160/153/2 156/154/2
f 168/155/2 169/156/2 176/157/2 177/158/2 172/159/2 173/160/2 174/161/2 175/162/2 170/163/2 171/164/2 167/165/2
f 179/166/2 180/167/2 187/168/2 188/169/2 183/170/2 184/171/2 185/172/2 186/173/2 181/174/2 182/175/2 178/176/2
f 78/177/3 77/178/3 167/179/3 171/180/3
f 49/181/4 50/182/4 147/183/4 146/184/4
f 21/185/5 22/186/5 123/187/5 122/188/5
f 83/189/6 79/190/6 173/191/6 172/192/6
f 56/193/6 52/194/6 149/195/6 148/196/6
f 22/197/4 24/198/4 124/199/4 123/200/4
f 84/201/6 80/202/6 175/203/6 174/204/6
f 52/205/3 51/206/3 145/207/3 149/208/3
f 24/209/6 23/210/6 121/211/6 124/212/6
f 85/213/6 81/214/6 177/215/6 176/216/6
f 57/217/6 53/218/6 151/219/6 150/220/6
f 27/221/3 25/222/3 126/223/3 125/224/3
f 80/202/6 82/225/6 170/226/6 175/203/6
f 58/227/6 54/228/6 153/229/6 152/230/6
f 25/231/5 26/232/5 127/233/5 126/234/5
f 81/214/6 83/189/6 172/192/6 177/215/6
f 59/235/6 55/236/6 155/237/6 154/238/6
f 26/239/4 28/240/4 128/241/4 127/242/4
f 3/243/3 1/244/3 102/245/3 101/246/3
f 79/190/6 84/201/6 174/204/6 173/191/6
f 54/228/6 56/193/6 148/196/6 153/229/6
f 28/247/6 27/248/6 125/249/6 128/250/6
f 1/251/5 2/252/5 103/253/5 102/254/5
f 76/255/6 85/213/6 176/216/6 169/256/6
f 55/236/6 57/217/6 150/220/6 155/237/6
f 2/257/4 4/258/4 104/259/4 103/260/4
f 53/218/6 58/227/6 152/230/6 151/219/6
f 4/261/6 3/262/6 101/263/6 104/264/6
f 90/265/3 88/266/3 179/267/3 178/268/3
f 50/269/6 59/235/6 154/238/6 147/270/6
f 35/271/3 33/272/3 130/273/3 129/274/3
f 7/275/3 5/276/3 106/277/3 105/278/3
f 88/279/5 89/280/5 180/281/5 179/282/5
f 33/283/5 34/284/5 131/285/5 130/286/5
f 5/287/5 6/288/5 107/289/5 106/290/5
f 95/291/4 91/292/4 182/293/4 181/294/4
f 64/295/5 62/296/5 157/297/5 156/298/5
f 34/299/4 36/300/4 132/301/4 131/302/4
f 6/303/4 8/304/4 108/305/4 107/306/4
f 91/307/6 90/308/6 178/309/6 182/310/6
f 62/311/4 63/312/4 158/313/4 157/314/4
f 36/315/6 35/316/6 129/317/6 132/318/6
f 8/319/6 7/320/6 105/321/6 108/322/6
f 96/323/4 92/324/4 184/325/4 183/326/4
f 69/327/6 65/328/6 160/329/6 159/330/6
f 39/331/3 37/332/3 134/333/3 133/334/3
f 11/335/3 9/336/3 110/337/3 109/338/3
f 97/339/4 93/340/4 186/341/4 185/342/4
f 65/343/3 64/344/3 156/345/3 160/346/3
f 37/347/5 38/348/5 135/349/5 134/350/5
f 9/351/5 10/352/5 111/353/5 110/354/5
f 98/355/4 94/356/4 188/357/4 187/358/4
f 70/359/6 66/360/6 162/361/6 161/362/6
f 38/363/4 40/364/4 136/365/4 135/366/4
f 10/367/4 12/368/4 112/369/4 111/370/4
f 93/340/4 95/291/4 181/294/4 186/341/4
f 71/371/6 67/372/6 164/373/6 163/374/6
f 40/375/6 39/376/6 133/377/6 136/378/6
f 12/379/6 11/380/6 109/381/6 112/382/6
f 94/356/4 96/323/4 183/326/4 188/357/4
f 72/383/6 68/384/6 166/385/6 165/386/6
f 43/387/3 41/388/3 138/389/3 137/390/3
f 15/391/3 13/392/3 114/393/3 113/394/3
f 92/324/4 97/339/4 185/342/4 184/325/4
f 67/372/6 69/327/6 159/330/6 164/373/6
f 41/395/5 42/396/5 139/397/5 138/398/5
f 13/399/5 14/400/5 115/401/5 114/402/5
f 89/403/4 98/355/4 187/358/4 180/404/4
f 68/384/6 70/359/6 161/362/6 166/385/6
f 42/405/4 44/406/4 140/407/4 139/408/4
f 14/409/4 16/410/4 116/411/4 115/412/4
f 66/360/6 71/371/6 163/374/6 162/361/6
f 44/413/6 43/414/6 137/415/6 140/416/6
f 16/417/6 15/418/6 113/419/6 116/420/6
f 63/421/6 72/383/6 165/386/6 158/422/6
f 47/423/3 45/424/3 142/425/3 141/426/3
f 19/427/3 17/428/3 118/429/3 117/430/3
f 45/431/5 46/432/5 143/433/5 142/434/5
f 17/435/5 18/436/5 119/437/5 118/438/5
f 77/439/5 75/440/5 168/441/5 167/442/5
f 46/443/4 48/444/4 144/445/4 143/446/4
f 18/447/4 20/448/4 120/449/4 119/450/4
f 75/451/4 76/452/4 169/453/4 168/454/4
f 48/455/6 47/456/6 141/457/6 144/458/6
f 20/459/6 19/460/6 117/461/6 120/462/6
f 82/225/6 78/463/6 171/464/6 170/226/6
f 51/465/5 49/466/5 146/467/5 145/468/5
f 23/469/3 21/470/3 122/471/3 121/472/3
f 189/473/2 190/474/2 192/475/2 191/476/2
