# This file uses centimeters as units for non-parametric coordinates.

mtllib TankModel_01_RotatingItem.mtl
g default
v 0.001101 1.715935 -0.752342
v -0.050205 1.737063 -0.750058
v -0.071457 1.788072 -0.744545
v -0.050205 1.839081 -0.739032
v 0.001101 1.839692 -0.546906
v 0.052406 1.818563 -0.549190
v 0.073658 1.767554 -0.554702
v 0.052406 1.716545 -0.560215
v 0.001101 1.695417 -0.562499
v -0.050205 1.716545 -0.560215
v -0.071457 1.767554 -0.554702
v -0.050205 1.818563 -0.549190
v 0.052406 1.737063 -0.750058
v 0.073658 1.788072 -0.744545
v 0.052406 1.839081 -0.739032
v 0.001101 1.860210 -0.736749
v -0.083624 1.872306 -0.735442
v -0.118718 1.788072 -0.744545
v -0.083624 1.703838 -0.753649
v 0.001101 1.668948 -0.757420
v 0.085825 1.703838 -0.753649
v 0.120918 1.788072 -0.744545
v 0.085825 1.872306 -0.735442
v 0.001101 1.907196 -0.731671
v -0.115444 1.884220 -0.533787
v -0.163718 1.768350 -0.546310
v -0.115444 1.652481 -0.558833
v 0.001101 1.604487 -0.564020
v 0.117645 1.652481 -0.558833
v 0.165919 1.768350 -0.546310
v 0.117645 1.884220 -0.533787
v 0.001101 1.932214 -0.528600
v 0.001101 1.839692 -0.546906
v 0.001101 1.839692 -0.546906
v 0.052406 1.818563 -0.549190
v 0.073658 1.767554 -0.554702
v 0.052406 1.716545 -0.560215
v 0.001101 1.695417 -0.562499
v 0.001101 1.695417 -0.562499
v -0.050205 1.716545 -0.560215
v -0.071457 1.767554 -0.554702
v -0.050205 1.818563 -0.549190
v 0.001101 1.860210 -0.736749
v 0.001101 1.860210 -0.736749
v 0.001101 1.715935 -0.752342
v 0.001101 1.715935 -0.752342
v -0.050205 1.839081 -0.739032
v -0.071457 1.788072 -0.744545
v -0.050205 1.737063 -0.750058
v 0.052406 1.737063 -0.750058
v 0.073658 1.788072 -0.744545
v 0.052406 1.839081 -0.739032
v 0.001101 1.604487 -0.564020
v 0.001101 1.604487 -0.564020
v 0.001101 1.604487 -0.564020
v 0.001101 1.668948 -0.757420
v 0.001101 1.668948 -0.757420
v 0.001101 1.932214 -0.528600
v 0.001101 1.932214 -0.528600
v 0.001101 1.932214 -0.528600
v 0.001101 1.907196 -0.731671
v 0.001101 1.907196 -0.731671
v -0.083624 1.872306 -0.735442
v -0.118718 1.788072 -0.744545
v -0.083624 1.703838 -0.753649
v 0.085825 1.703838 -0.753649
v 0.120918 1.788072 -0.744545
v 0.085825 1.872306 -0.735442
v 0.001101 1.875789 -0.415780
v 0.001101 1.875789 -0.415780
v 0.001101 1.638987 -0.441372
v 0.001101 1.638987 -0.441372
v -0.115444 1.884220 -0.533787
v -0.163718 1.768350 -0.546310
v -0.115444 1.652481 -0.558833
v 0.117645 1.652481 -0.558833
v 0.165919 1.768350 -0.546310
v 0.117645 1.884220 -0.533787
v -0.083109 1.841109 -0.419528
v -0.117989 1.757387 -0.428576
v -0.083109 1.673665 -0.437625
v 0.085310 1.673665 -0.437625
v 0.120190 1.757387 -0.428576
v 0.085310 1.841109 -0.419528
v -0.071457 1.788072 -0.744545
v -0.083624 1.872306 -0.735442
v 0.073658 1.788072 -0.744545
v 0.085825 1.703838 -0.753649
v 0.052406 1.818563 -0.549190
v -0.050205 1.818563 -0.549190
v 0.073658 1.767554 -0.554702
v -0.050205 1.818563 -0.549190
v 0.052406 1.716545 -0.560215
v -0.050205 1.818563 -0.549190
v 0.001101 1.695417 -0.562499
v -0.050205 1.818563 -0.549190
v -0.050205 1.716545 -0.560215
v -0.050205 1.818563 -0.549190
v 0.052406 1.716545 -0.560215
v 0.001101 1.715935 -0.752342
v 0.001101 1.695417 -0.562499
v -0.050205 1.737063 -0.750058
v 0.001101 1.839692 -0.546906
v 0.052406 1.839081 -0.739032
v -0.050205 1.737063 -0.750058
v -0.050205 1.716545 -0.560215
v -0.050205 1.716545 -0.560215
v -0.071457 1.788072 -0.744545
v 0.052406 1.839081 -0.739032
v 0.052406 1.818563 -0.549190
v 0.052406 1.818563 -0.549190
v 0.073658 1.788072 -0.744545
v -0.071457 1.788072 -0.744545
v -0.071457 1.767554 -0.554702
v -0.071457 1.767554 -0.554702
v -0.050205 1.839081 -0.739032
v 0.073658 1.788072 -0.744545
v 0.052406 1.737063 -0.750058
v 0.073658 1.767554 -0.554702
v 0.073658 1.767554 -0.554702
v 0.052406 1.737063 -0.750058
v 0.052406 1.716545 -0.560215
v 0.120918 1.788072 -0.744545
v 0.052406 1.839081 -0.739032
v 0.120918 1.788072 -0.744545
v 0.073658 1.788072 -0.744545
v -0.118718 1.788072 -0.744545
v -0.050205 1.737063 -0.750058
v -0.118718 1.788072 -0.744545
v -0.071457 1.788072 -0.744545
v 0.085825 1.872306 -0.735442
v 0.001101 1.860210 -0.736749
v 0.085825 1.872306 -0.735442
v 0.052406 1.839081 -0.739032
v -0.083624 1.703838 -0.753649
v 0.001101 1.715935 -0.752342
v -0.083624 1.703838 -0.753649
v -0.050205 1.737063 -0.750058
v 0.085825 1.703838 -0.753649
v 0.001101 1.668948 -0.757420
v 0.052406 1.737063 -0.750058
v 0.052406 1.737063 -0.750058
v 0.001101 1.668948 -0.757420
v 0.001101 1.715935 -0.752342
v -0.050205 1.839081 -0.739032
v -0.050205 1.818563 -0.549190
v -0.050205 1.818563 -0.549190
v 0.001101 1.860210 -0.736749
v 0.120918 1.788072 -0.744545
v 0.117645 1.652481 -0.558833
v -0.163718 1.768350 -0.546310
v -0.083624 1.872306 -0.735442
v 0.165919 1.768350 -0.546310
v 0.085825 1.872306 -0.735442
v 0.165919 1.768350 -0.546310
v 0.120918 1.788072 -0.744545
v -0.163718 1.768350 -0.546310
v -0.118718 1.788072 -0.744545
v -0.115444 1.652481 -0.558833
v -0.118718 1.788072 -0.744545
v 0.117645 1.884220 -0.533787
v 0.001101 1.907196 -0.731671
v 0.117645 1.884220 -0.533787
v 0.085825 1.872306 -0.735442
v -0.115444 1.652481 -0.558833
v -0.083624 1.703838 -0.753649
v 0.001101 1.604487 -0.564020
v -0.083624 1.703838 -0.753649
v 0.117645 1.652481 -0.558833
v 0.085825 1.703838 -0.753649
v 0.085825 1.703838 -0.753649
v 0.001101 1.604487 -0.564020
v -0.083624 1.872306 -0.735442
v 0.001101 1.907196 -0.731671
v -0.050205 1.839081 -0.739032
v -0.050205 1.839081 -0.739032
v 0.001101 1.907196 -0.731671
v 0.001101 1.860210 -0.736749
v 0.117645 1.652481 -0.558833
v 0.001101 1.638987 -0.441372
v -0.083109 1.841109 -0.419528
v 0.001101 1.932214 -0.528600
v 0.085310 1.673665 -0.437625
v 0.165919 1.768350 -0.546310
v 0.085310 1.673665 -0.437625
v 0.117645 1.652481 -0.558833
v -0.083109 1.841109 -0.419528
v -0.115444 1.884220 -0.533787
v -0.117989 1.757387 -0.428576
v -0.115444 1.884220 -0.533787
v 0.120190 1.757387 -0.428576
v 0.117645 1.884220 -0.533787
v 0.120190 1.757387 -0.428576
v 0.165919 1.768350 -0.546310
v -0.117989 1.757387 -0.428576
v -0.163718 1.768350 -0.546310
v -0.083109 1.673665 -0.437625
v -0.163718 1.768350 -0.546310
v 0.085310 1.841109 -0.419528
v 0.001101 1.932214 -0.528600
v 0.085310 1.841109 -0.419528
v 0.117645 1.884220 -0.533787
v -0.083109 1.673665 -0.437625
v -0.115444 1.652481 -0.558833
v 0.001101 1.638987 -0.441372
v -0.115444 1.652481 -0.558833
v -0.115444 1.884220 -0.533787
v -0.115444 1.884220 -0.533787
v 0.001101 1.907196 -0.731671
v -0.083624 1.872306 -0.735442
vt 0.000000 0.000000
vt 0.000000 0.000000
vt 0.000000 0.000000
vt 0.000000 0.000000
vt 0.000000 0.000000
vt 0.000000 0.000000
vt 0.000000 0.000000
vt 0.000000 0.000000
vt 0.000000 0.000000
vt 0.000000 0.000000
vt 0.000000 0.000000
vt 0.000000 0.000000
vt 0.000000 0.000000
vt 0.000000 0.000000
vt 0.000000 0.000000
vt 0.000000 0.000000
vt 0.000000 0.000000
vt 0.000000 0.000000
vt 0.000000 0.000000
vt 0.000000 0.000000
vt 0.000000 0.000000
vt 0.000000 0.000000
vt 0.000000 0.000000
vt 0.000000 0.000000
vt 0.000000 0.000000
vt 0.000000 0.000000
vt 0.000000 0.000000
vt 0.000000 0.000000
vt 0.000000 0.000000
vt 0.000000 0.000000
vt 0.000000 0.000000
vt 0.000000 0.000000
vt 0.000000 0.000000
vt 0.000000 0.000000
vt 0.000000 0.000000
vt 0.000000 0.000000
vt 0.000000 0.000000
vt 0.000000 0.000000
vt 0.000000 0.000000
vt 0.000000 0.000000
vt 0.000000 0.000000
vt 0.000000 0.000000
vt 0.000000 0.000000
vt 0.000000 0.000000
vt 0.000000 0.000000
vt 0.000000 0.000000
vt 0.000000 0.000000
vt 0.000000 0.000000
vt 0.000000 0.000000
vt 0.000000 0.000000
vt 0.000000 0.000000
vt 0.000000 0.000000
vt 0.000000 0.000000
vt 0.000000 0.000000
vt 0.000000 0.000000
vt 0.000000 0.000000
vt 0.000000 0.000000
vt 0.000000 0.000000
vt 0.000000 0.000000
vt 0.000000 0.000000
vt 0.000000 0.000000
vt 0.000000 0.000000
vt 0.000000 0.000000
vt 0.000000 0.000000
vt 0.000000 0.000000
vt 0.000000 0.000000
vt 0.000000 0.000000
vt 0.000000 0.000000
vt 0.000000 0.000000
vt 0.000000 0.000000
vt 0.000000 0.000000
vt 0.000000 0.000000
vt 0.000000 0.000000
vt 0.000000 0.000000
vt 0.000000 0.000000
vt 0.000000 0.000000
vt 0.000000 0.000000
vt 0.000000 0.000000
vt 0.000000 0.000000
vt 0.000000 0.000000
vt 0.000000 0.000000
vt 0.000000 0.000000
vt 0.000000 0.000000
vt 0.000000 0.000000
vt 0.000000 0.000000
vt 0.000000 0.000000
vt 0.000000 0.000000
vt 0.000000 0.000000
vt 0.000000 0.000000
vt 0.000000 0.000000
vt 0.000000 0.000000
vt 0.000000 0.000000
vt 0.000000 0.000000
vt 0.000000 0.000000
vt 0.000000 0.000000
vt 0.000000 0.000000
vt 0.000000 0.000000
vt 0.000000 0.000000
vt 0.000000 0.000000
vt 0.000000 0.000000
vt 0.000000 0.000000
vt 0.000000 0.000000
vt 0.000000 0.000000
vt 0.000000 0.000000
vt 0.000000 0.000000
vt 0.000000 0.000000
vt 0.000000 0.000000
vt 0.000000 0.000000
vt 0.000000 0.000000
vt 0.000000 0.000000
vt 0.000000 0.000000
vt 0.000000 0.000000
vt 0.000000 0.000000
vt 0.000000 0.000000
vt 0.000000 0.000000
vt 0.000000 0.000000
vt 0.000000 0.000000
vt 0.000000 0.000000
vt 0.000000 0.000000
vt 0.000000 0.000000
vt 0.000000 0.000000
vt 0.000000 0.000000
vt 0.000000 0.000000
vt 0.000000 0.000000
vt 0.000000 0.000000
vt 0.000000 0.000000
vt 0.000000 0.000000
vt 0.000000 0.000000
vt 0.000000 0.000000
vt 0.000000 0.000000
vt 0.000000 0.000000
vt 0.000000 0.000000
vt 0.000000 0.000000
vt 0.000000 0.000000
vt 0.000000 0.000000
vt 0.000000 0.000000
vt 0.000000 0.000000
vt 0.000000 0.000000
vt 0.000000 0.000000
vt 0.000000 0.000000
vt 0.000000 0.000000
vt 0.000000 0.000000
vt 0.000000 0.000000
vt 0.000000 0.000000
vt 0.000000 0.000000
vt 0.000000 0.000000
vt 0.000000 0.000000
vt 0.000000 0.000000
vt 0.000000 0.000000
vt 0.000000 0.000000
vt 0.000000 0.000000
vt 0.000000 0.000000
vt 0.000000 0.000000
vt 0.000000 0.000000
vt 0.000000 0.000000
vt 0.000000 0.000000
vt 0.000000 0.000000
vt 0.000000 0.000000
vt 0.000000 0.000000
vt 0.000000 0.000000
vt 0.000000 0.000000
vt 0.000000 0.000000
vt 0.000000 0.000000
vt 0.000000 0.000000
vt 0.000000 0.000000
vt 0.000000 0.000000
vt 0.000000 0.000000
vt 0.000000 0.000000
vt 0.000000 0.000000
vt 0.000000 0.000000
vt 0.000000 0.000000
vt 0.000000 0.000000
vt 0.000000 0.000000
vt 0.000000 0.000000
vt 0.000000 0.000000
vt 0.000000 0.000000
vt 0.000000 0.000000
vt 0.000000 0.000000
vt 0.000000 0.000000
vt 0.000000 0.000000
vt 0.000000 0.000000
vt 0.000000 0.000000
vt 0.000000 0.000000
vt 0.000000 0.000000
vt 0.000000 0.000000
vt 0.000000 0.000000
vt 0.000000 0.000000
vt 0.000000 0.000000
vt 0.000000 0.000000
vt 0.000000 0.000000
vt 0.000000 0.000000
vt 0.000000 0.000000
vt 0.000000 0.000000
vt 0.000000 0.000000
vt 0.000000 0.000000
vt 0.000000 0.000000
vt 0.000000 0.000000
vt 0.000000 0.000000
vt 0.000000 0.000000
vt 0.000000 0.000000
vt 0.000000 0.000000
vt 0.000000 0.000000
vt 0.000000 0.000000
vt 0.000000 0.000000
vt 0.000000 0.000000
vt 0.000000 0.000000
vt 0.000000 0.000000
vt 0.000000 0.000000
vt 0.000000 0.000000
vt 0.000000 0.000000
vn 0.000000 0.107402 -0.994216
vn 0.000000 0.107402 -0.994216
vn 0.000000 0.107402 -0.994216
vn 0.000000 0.107402 -0.994216
vn 0.000000 0.107402 -0.994216
vn 0.000000 0.107402 -0.994216
vn 0.000000 0.107402 -0.994216
vn 0.000000 0.107402 -0.994216
vn 0.000000 0.107402 -0.994216
vn 0.000000 0.107402 -0.994216
vn 0.000000 0.107402 -0.994216
vn 0.000000 0.107402 -0.994216
vn 0.000000 0.107402 -0.994216
vn 0.000000 0.107402 -0.994216
vn 0.000000 0.107402 -0.994216
vn 0.000000 0.107402 -0.994216
vn 0.000000 0.107402 -0.994216
vn 0.000000 0.107402 -0.994216
vn 0.000000 0.107402 -0.994216
vn 0.000000 0.107402 -0.994216
vn 0.000000 0.107402 -0.994216
vn 0.000000 0.107402 -0.994216
vn 0.000000 0.107402 -0.994216
vn 0.000000 0.107402 -0.994216
vn 0.000000 0.107402 -0.994216
vn 0.000000 0.107402 -0.994216
vn 0.000000 0.107402 -0.994216
vn 0.000000 0.107402 -0.994216
vn 0.000000 0.107402 -0.994216
vn 0.000000 0.107402 -0.994216
vn -0.707109 0.703009 0.076001
vn -0.382711 0.918527 0.099203
vn -0.707109 0.703009 0.076001
vn -0.707109 0.703009 0.076001
vn -0.382711 0.918527 0.099203
vn -0.382711 0.918527 0.099203
vn 0.382711 0.918527 0.099203
vn 0.707109 0.703009 0.076001
vn 0.382711 0.918527 0.099203
vn 0.382711 0.918527 0.099203
vn 0.707109 0.703009 0.076001
vn 0.707109 0.703009 0.076001
vn -0.382711 -0.918527 -0.099203
vn -0.707109 -0.703009 -0.076001
vn -0.382711 -0.918527 -0.099203
vn -0.382711 -0.918527 -0.099203
vn -0.707109 -0.703009 -0.076001
vn -0.707109 -0.703009 -0.076001
vn 0.707109 0.703009 0.076001
vn 1.000000 0.000000 0.000000
vn 0.707109 0.703009 0.076001
vn 0.707109 0.703009 0.076001
vn 1.000000 0.000000 0.000000
vn 1.000000 0.000000 0.000000
vn -0.707109 -0.703009 -0.076001
vn -1.000000 0.000000 0.000000
vn -0.707109 -0.703009 -0.076001
vn -0.707109 -0.703009 -0.076001
vn -1.000000 0.000000 0.000000
vn -1.000000 0.000000 0.000000
vn 1.000000 0.000000 0.000000
vn 0.707109 -0.703009 -0.076001
vn 1.000000 0.000000 0.000000
vn 1.000000 0.000000 0.000000
vn 0.707109 -0.703009 -0.076001
vn 0.707109 -0.703009 -0.076001
vn -1.000000 0.000000 0.000000
vn -0.707109 0.703009 0.076001
vn -1.000000 0.000000 0.000000
vn -1.000000 0.000000 0.000000
vn -0.707109 0.703009 0.076001
vn -0.707109 0.703009 0.076001
vn 0.000000 0.107402 -0.994216
vn 0.000000 0.107402 -0.994216
vn 0.000000 0.107402 -0.994216
vn 0.000000 0.107402 -0.994216
vn 0.000000 0.107402 -0.994216
vn 0.000000 0.107402 -0.994216
vn 0.000000 0.107402 -0.994216
vn 0.000000 0.107402 -0.994216
vn 0.000000 0.107402 -0.994216
vn 0.000000 0.107402 -0.994216
vn 0.000000 0.107402 -0.994216
vn 0.000000 0.107402 -0.994216
vn 0.000000 0.107402 -0.994216
vn 0.000000 0.107402 -0.994216
vn 0.000000 0.107402 -0.994216
vn 0.000000 0.107402 -0.994216
vn 0.000000 0.107402 -0.994216
vn 0.000000 0.107402 -0.994216
vn 0.000000 0.107402 -0.994216
vn 0.000000 0.107402 -0.994216
vn 0.000000 0.107402 -0.994216
vn 0.000000 0.107402 -0.994216
vn 0.000000 0.107402 -0.994216
vn 0.000000 0.107402 -0.994216
vn 0.000000 0.107402 -0.994216
vn 0.000000 0.107402 -0.994216
vn 0.000000 0.107402 -0.994216
vn 0.000000 0.107402 -0.994216
vn 0.000000 0.107402 -0.994216
vn 0.000000 0.107402 -0.994216
vn 0.707109 -0.703009 -0.076001
vn 0.382711 -0.918527 -0.099203
vn 0.707109 -0.703009 -0.076001
vn 0.707109 -0.703009 -0.076001
vn 0.382711 -0.918527 -0.099203
vn 0.382711 -0.918527 -0.099203
vn 0.975413 0.025500 -0.218903
vn 0.691526 -0.662625 -0.287611
vn 0.975420 0.021500 -0.219304
vn 0.975420 0.021500 -0.219304
vn 0.691526 -0.662625 -0.287611
vn 0.689523 -0.664622 -0.287810
vn -0.687915 0.710015 -0.150503
vn -0.689922 0.708022 -0.150705
vn -0.975413 0.025500 -0.218903
vn -0.975413 0.025500 -0.218903
vn -0.689922 0.708022 -0.150705
vn -0.975420 0.021500 -0.219304
vn 0.687915 0.710015 -0.150503
vn 0.975413 0.025500 -0.218903
vn 0.689922 0.708022 -0.150705
vn 0.689922 0.708022 -0.150705
vn 0.975413 0.025500 -0.218903
vn 0.975420 0.021500 -0.219304
vn -0.975413 0.025500 -0.218903
vn -0.975420 0.021500 -0.219304
vn -0.691526 -0.662625 -0.287611
vn -0.691526 -0.662625 -0.287611
vn -0.975420 0.021500 -0.219304
vn -0.689523 -0.664622 -0.287810
vn 0.374024 0.920459 -0.113407
vn 0.687915 0.710015 -0.150503
vn 0.374024 0.920459 -0.113407
vn 0.374024 0.920459 -0.113407
vn 0.687915 0.710015 -0.150503
vn 0.689922 0.708022 -0.150705
vn -0.691526 -0.662625 -0.287611
vn -0.689523 -0.664622 -0.287810
vn -0.375195 -0.879388 -0.293096
vn -0.375195 -0.879388 -0.293096
vn -0.689523 -0.664622 -0.287810
vn -0.375195 -0.879388 -0.293096
vn 0.691526 -0.662625 -0.287611
vn 0.375195 -0.879388 -0.293096
vn 0.689523 -0.664622 -0.287810
vn 0.689523 -0.664622 -0.287810
vn 0.375195 -0.879388 -0.293096
vn 0.375195 -0.879388 -0.293096
vn 0.000000 0.107402 -0.994216
vn 0.000000 0.107402 -0.994216
vn 0.000000 0.107402 -0.994216
vn 0.000000 0.107402 -0.994216
vn 0.000000 0.107402 -0.994216
vn 0.000000 0.107402 -0.994216
vn 0.658940 -0.691242 0.296618
vn 0.358809 -0.898524 0.252807
vn 0.655781 -0.694380 0.296291
vn 0.655781 -0.694380 0.296291
vn 0.358809 -0.898524 0.252807
vn 0.358809 -0.898524 0.252807
vn -0.361915 0.833735 0.417017
vn -0.361915 0.833735 0.417017
vn -0.660021 0.621919 0.421413
vn -0.660021 0.621919 0.421413
vn -0.361915 0.833735 0.417017
vn -0.663217 0.618716 0.421111
vn 0.932677 -0.035199 0.358991
vn 0.658940 -0.691242 0.296618
vn 0.932673 -0.041503 0.358328
vn 0.932673 -0.041503 0.358328
vn 0.658940 -0.691242 0.296618
vn 0.655781 -0.694380 0.296291
vn -0.660021 0.621919 0.421413
vn -0.663217 0.618716 0.421111
vn -0.932677 -0.035199 0.358991
vn -0.932677 -0.035199 0.358991
vn -0.663217 0.618716 0.421111
vn -0.932639 -0.041502 0.358415
vn 0.660021 0.621919 0.421413
vn 0.932677 -0.035199 0.358991
vn 0.663217 0.618716 0.421111
vn 0.663217 0.618716 0.421111
vn 0.932677 -0.035199 0.358991
vn 0.932673 -0.041503 0.358328
vn -0.932677 -0.035199 0.358991
vn -0.932639 -0.041502 0.358415
vn -0.658940 -0.691242 0.296618
vn -0.658940 -0.691242 0.296618
vn -0.932639 -0.041502 0.358415
vn -0.655781 -0.694380 0.296291
vn 0.361915 0.833735 0.417017
vn 0.660021 0.621919 0.421413
vn 0.361915 0.833735 0.417017
vn 0.361915 0.833735 0.417017
vn 0.660021 0.621919 0.421413
vn 0.663217 0.618716 0.421111
vn -0.658940 -0.691242 0.296618
vn -0.655781 -0.694380 0.296291
vn -0.358809 -0.898524 0.252807
vn -0.358809 -0.898524 0.252807
vn -0.655781 -0.694380 0.296291
vn -0.358809 -0.898524 0.252807
vn -0.374024 0.920459 -0.113407
vn -0.374024 0.920459 -0.113407
vn -0.687915 0.710015 -0.150503
vn -0.687915 0.710015 -0.150503
vn -0.374024 0.920459 -0.113407
vn -0.689922 0.708022 -0.150705
s off
g mech_f_432:Mesh
usemtl mech_f_432:MeshSG2
f 64/64/1 63/63/2 48/48/3
f 85/85/4 86/86/5 4/4/6
f 67/67/7 66/66/8 51/51/9
f 87/87/10 88/88/11 13/13/12
f 33/33/13 35/35/14 42/42/15
f 89/89/16 36/36/17 90/90/18
f 91/91/19 37/37/20 92/92/21
f 93/93/22 38/38/23 94/94/24
f 95/95/25 40/40/26 96/96/27
f 97/97/28 41/41/29 98/98/30
f 50/50/31 45/45/32 8/8/33
f 99/99/34 100/100/35 39/39/36
f 1/1/37 2/2/38 9/9/39
f 101/101/40 102/102/41 10/10/42
f 43/43/43 15/15/44 34/34/45
f 103/103/46 104/104/47 6/6/48
f 105/105/49 3/3/50 106/106/51
f 107/107/52 108/108/53 11/11/54
f 109/109/55 14/14/56 110/110/57
f 111/111/58 112/112/59 7/7/60
f 113/113/61 47/47/62 114/114/63
f 115/115/64 116/116/65 12/12/66
f 117/117/67 118/118/68 119/119/69
f 120/120/70 121/121/71 122/122/72
f 68/68/73 123/123/74 52/52/75
f 124/124/76 125/125/77 126/126/78
f 65/65/79 127/127/80 49/49/81
f 128/128/82 129/129/83 130/130/84
f 61/61/85 131/131/86 44/44/87
f 132/132/88 133/133/89 134/134/90
f 56/56/91 135/135/92 46/46/93
f 136/136/94 137/137/95 138/138/96
f 139/139/97 140/140/98 141/141/99
f 142/142/100 143/143/101 144/144/102
f 145/145/103 16/16/104 146/146/105
f 147/147/106 148/148/107 5/5/108
f 77/77/109 76/76/110 22/22/111
f 149/149/112 150/150/113 21/21/114
f 73/73/115 17/17/116 74/74/117
f 151/151/118 152/152/119 18/18/120
f 78/78/121 153/153/122 23/23/123
f 154/154/124 155/155/125 156/156/126
f 157/157/127 158/158/128 75/75/129
f 159/159/130 160/160/131 19/19/132
f 58/58/133 161/161/134 62/62/135
f 162/162/136 163/163/137 164/164/138
f 165/165/139 166/166/140 53/53/141
f 167/167/142 168/168/143 57/57/144
f 169/169/145 55/55/146 170/170/147
f 171/171/148 172/172/149 20/20/150
f 173/173/151 174/174/152 175/175/153
f 176/176/154 177/177/155 178/178/156
f 82/82/157 71/71/158 29/29/159
f 179/179/160 180/180/161 54/54/162
f 69/69/163 59/59/164 79/79/165
f 181/181/166 182/182/167 25/25/168
f 83/83/169 183/183/170 30/30/171
f 184/184/172 185/185/173 186/186/174
f 187/187/175 188/188/176 80/80/177
f 189/189/178 190/190/179 26/26/180
f 84/84/181 191/191/182 31/31/183
f 192/192/184 193/193/185 194/194/186
f 195/195/187 196/196/188 81/81/189
f 197/197/190 198/198/191 27/27/192
f 70/70/193 199/199/194 32/32/195
f 200/200/196 201/201/197 202/202/198
f 203/203/199 204/204/200 72/72/201
f 205/205/202 206/206/203 28/28/204
f 60/60/205 24/24/206 207/207/207
f 208/208/208 209/209/209 210/210/210
