# Blender v2.79 (sub 0) OBJ File: 'untitled.blend'
# www.blender.org
mtllib RotatingItem.mtl
o mech_f_432:Mesh
v -0.118718 1.788072 -0.744545
v -0.083624 1.872306 -0.735442
v -0.071457 1.788072 -0.744545
v -0.071457 1.788072 -0.744545
v -0.083624 1.872306 -0.735442
v -0.050205 1.839081 -0.739032
v 0.120918 1.788072 -0.744545
v 0.085825 1.703838 -0.753649
v 0.073658 1.788072 -0.744545
v 0.073658 1.788072 -0.744545
v 0.085825 1.703838 -0.753649
v 0.052406 1.737063 -0.750058
v 0.001101 1.839692 -0.546906
v 0.052406 1.818563 -0.549190
v -0.050205 1.818563 -0.549190
v 0.052406 1.818563 -0.549190
v 0.073658 1.767554 -0.554702
v -0.050205 1.818563 -0.549190
v 0.073658 1.767554 -0.554702
v 0.052406 1.716545 -0.560215
v -0.050205 1.818563 -0.549190
v 0.052406 1.716545 -0.560215
v 0.001101 1.695417 -0.562499
v -0.050205 1.818563 -0.549190
v 0.001101 1.695417 -0.562499
v -0.050205 1.716545 -0.560215
v -0.050205 1.818563 -0.549190
v -0.050205 1.716545 -0.560215
v -0.071457 1.767554 -0.554702
v -0.050205 1.818563 -0.549190
v 0.052406 1.737063 -0.750058
v 0.001101 1.715935 -0.752342
v 0.052406 1.716545 -0.560215
v 0.052406 1.716545 -0.560215
v 0.001101 1.715935 -0.752342
v 0.001101 1.695417 -0.562499
v 0.001101 1.715935 -0.752342
v -0.050205 1.737063 -0.750058
v 0.001101 1.695417 -0.562499
v 0.001101 1.695417 -0.562499
v -0.050205 1.737063 -0.750058
v -0.050205 1.716545 -0.560215
v 0.001101 1.860210 -0.736749
v 0.052406 1.839081 -0.739032
v 0.001101 1.839692 -0.546906
v 0.001101 1.839692 -0.546906
v 0.052406 1.839081 -0.739032
v 0.052406 1.818563 -0.549190
v -0.050205 1.737063 -0.750058
v -0.071457 1.788072 -0.744545
v -0.050205 1.716545 -0.560215
v -0.050205 1.716545 -0.560215
v -0.071457 1.788072 -0.744545
v -0.071457 1.767554 -0.554702
v 0.052406 1.839081 -0.739032
v 0.073658 1.788072 -0.744545
v 0.052406 1.818563 -0.549190
v 0.052406 1.818563 -0.549190
v 0.073658 1.788072 -0.744545
v 0.073658 1.767554 -0.554702
v -0.071457 1.788072 -0.744545
v -0.050205 1.839081 -0.739032
v -0.071457 1.767554 -0.554702
v -0.071457 1.767554 -0.554702
v -0.050205 1.839081 -0.739032
v -0.050205 1.818563 -0.549190
v 0.073658 1.788072 -0.744545
v 0.052406 1.737063 -0.750058
v 0.073658 1.767554 -0.554702
v 0.073658 1.767554 -0.554702
v 0.052406 1.737063 -0.750058
v 0.052406 1.716545 -0.560215
v 0.085825 1.872306 -0.735442
v 0.120918 1.788072 -0.744545
v 0.052406 1.839081 -0.739032
v 0.052406 1.839081 -0.739032
v 0.120918 1.788072 -0.744545
v 0.073658 1.788072 -0.744545
v -0.083624 1.703838 -0.753649
v -0.118718 1.788072 -0.744545
v -0.050205 1.737063 -0.750058
v -0.050205 1.737063 -0.750058
v -0.118718 1.788072 -0.744545
v -0.071457 1.788072 -0.744545
v 0.001101 1.907196 -0.731671
v 0.085825 1.872306 -0.735442
v 0.001101 1.860210 -0.736749
v 0.001101 1.860210 -0.736749
v 0.085825 1.872306 -0.735442
v 0.052406 1.839081 -0.739032
v 0.001101 1.668948 -0.757420
v -0.083624 1.703838 -0.753649
v 0.001101 1.715935 -0.752342
v 0.001101 1.715935 -0.752342
v -0.083624 1.703838 -0.753649
v -0.050205 1.737063 -0.750058
v 0.085825 1.703838 -0.753649
v 0.001101 1.668948 -0.757420
v 0.052406 1.737063 -0.750058
v 0.052406 1.737063 -0.750058
v 0.001101 1.668948 -0.757420
v 0.001101 1.715935 -0.752342
v -0.050205 1.839081 -0.739032
v 0.001101 1.860210 -0.736749
v -0.050205 1.818563 -0.549190
v -0.050205 1.818563 -0.549190
v 0.001101 1.860210 -0.736749
v 0.001101 1.839692 -0.546906
v 0.165919 1.768350 -0.546310
v 0.117645 1.652481 -0.558833
v 0.120918 1.788072 -0.744545
v 0.120918 1.788072 -0.744545
v 0.117645 1.652481 -0.558833
v 0.085825 1.703838 -0.753649
v -0.115444 1.884220 -0.533787
v -0.083624 1.872306 -0.735442
v -0.163718 1.768350 -0.546310
v -0.163718 1.768350 -0.546310
v -0.083624 1.872306 -0.735442
v -0.118718 1.788072 -0.744545
v 0.117645 1.884220 -0.533787
v 0.165919 1.768350 -0.546310
v 0.085825 1.872306 -0.735442
v 0.085825 1.872306 -0.735442
v 0.165919 1.768350 -0.546310
v 0.120918 1.788072 -0.744545
v -0.163718 1.768350 -0.546310
v -0.118718 1.788072 -0.744545
v -0.115444 1.652481 -0.558833
v -0.115444 1.652481 -0.558833
v -0.118718 1.788072 -0.744545
v -0.083624 1.703838 -0.753649
v 0.001101 1.932214 -0.528600
v 0.117645 1.884220 -0.533787
v 0.001101 1.907196 -0.731671
v 0.001101 1.907196 -0.731671
v 0.117645 1.884220 -0.533787
v 0.085825 1.872306 -0.735442
v -0.115444 1.652481 -0.558833
v -0.083624 1.703838 -0.753649
v 0.001101 1.604487 -0.564020
v 0.001101 1.604487 -0.564020
v -0.083624 1.703838 -0.753649
v 0.001101 1.668948 -0.757420
v 0.117645 1.652481 -0.558833
v 0.001101 1.604487 -0.564020
v 0.085825 1.703838 -0.753649
v 0.085825 1.703838 -0.753649
v 0.001101 1.604487 -0.564020
v 0.001101 1.668948 -0.757420
v -0.083624 1.872306 -0.735442
v 0.001101 1.907196 -0.731671
v -0.050205 1.839081 -0.739032
v -0.050205 1.839081 -0.739032
v 0.001101 1.907196 -0.731671
v 0.001101 1.860210 -0.736749
v 0.085310 1.673665 -0.437625
v 0.001101 1.638987 -0.441372
v 0.117645 1.652481 -0.558833
v 0.117645 1.652481 -0.558833
v 0.001101 1.638987 -0.441372
v 0.001101 1.604487 -0.564020
v 0.001101 1.875789 -0.415780
v 0.001101 1.932214 -0.528600
v -0.083109 1.841109 -0.419528
v -0.083109 1.841109 -0.419528
v 0.001101 1.932214 -0.528600
v -0.115444 1.884220 -0.533787
v 0.120190 1.757387 -0.428576
v 0.085310 1.673665 -0.437625
v 0.165919 1.768350 -0.546310
v 0.165919 1.768350 -0.546310
v 0.085310 1.673665 -0.437625
v 0.117645 1.652481 -0.558833
v -0.083109 1.841109 -0.419528
v -0.115444 1.884220 -0.533787
v -0.117989 1.757387 -0.428576
v -0.117989 1.757387 -0.428576
v -0.115444 1.884220 -0.533787
v -0.163718 1.768350 -0.546310
v 0.085310 1.841109 -0.419528
v 0.120190 1.757387 -0.428576
v 0.117645 1.884220 -0.533787
v 0.117645 1.884220 -0.533787
v 0.120190 1.757387 -0.428576
v 0.165919 1.768350 -0.546310
v -0.117989 1.757387 -0.428576
v -0.163718 1.768350 -0.546310
v -0.083109 1.673665 -0.437625
v -0.083109 1.673665 -0.437625
v -0.163718 1.768350 -0.546310
v -0.115444 1.652481 -0.558833
v 0.001101 1.875789 -0.415780
v 0.085310 1.841109 -0.419528
v 0.001101 1.932214 -0.528600
v 0.001101 1.932214 -0.528600
v 0.085310 1.841109 -0.419528
v 0.117645 1.884220 -0.533787
v -0.083109 1.673665 -0.437625
v -0.115444 1.652481 -0.558833
v 0.001101 1.638987 -0.441372
v 0.001101 1.638987 -0.441372
v -0.115444 1.652481 -0.558833
v 0.001101 1.604487 -0.564020
v 0.001101 1.932214 -0.528600
v 0.001101 1.907196 -0.731671
v -0.115444 1.884220 -0.533787
v -0.115444 1.884220 -0.533787
v 0.001101 1.907196 -0.731671
v -0.083624 1.872306 -0.735442
vt 0.537939 0.932796
vt 0.570722 0.837819
vt 0.582088 0.932796
vt 0.101686 0.252378
vt 0.101686 0.348329
vt 0.075223 0.305922
vt 0.399650 0.998846
vt 0.432432 0.903869
vt 0.443797 0.998846
vt 0.101686 0.348329
vt 0.101686 0.444281
vt 0.075223 0.401873
vt 0.452512 0.880363
vt 0.472365 0.822849
vt 0.472365 0.937877
vt 0.166833 0.881679
vt 0.203515 0.837658
vt 0.203515 0.987951
vt 0.155192 0.945344
vt 0.103316 0.945344
vt 0.155192 0.795052
vt 0.522638 0.958532
vt 0.474712 0.934709
vt 0.522638 0.795857
vt 0.677023 0.978533
vt 0.640341 0.934514
vt 0.677023 0.828241
vt 0.324409 0.875618
vt 0.304557 0.818103
vt 0.324409 0.760588
vt 0.052350 0.521297
vt 0.102158 0.503901
vt 0.102158 0.726671
vt 0.216641 0.614888
vt 0.216641 0.837658
vt 0.166833 0.632285
vt 0.756563 0.662767
vt 0.792220 0.652291
vt 0.792220 0.872338
vt 0.214081 0.221098
vt 0.214081 0.441146
vt 0.178424 0.231575
vt 0.804574 0.434425
vt 0.767850 0.434425
vt 0.796049 0.220859
vt 0.792940 0.651993
vt 0.821144 0.438429
vt 0.829664 0.651993
vt 0.756563 0.866152
vt 0.704687 0.866152
vt 0.756563 0.652291
vt 0.704354 0.652291
vt 0.756230 0.438429
vt 0.756230 0.652290
vt 0.757927 0.213809
vt 0.706051 0.213809
vt 0.757927 0.000000
vt 0.587747 0.615131
vt 0.587747 0.837819
vt 0.537939 0.632533
vt 0.000000 0.769677
vt 0.035630 0.759041
vt 0.035630 0.979221
vt 0.827849 0.652291
vt 0.827849 0.872470
vt 0.792220 0.662927
vt 0.757927 0.007272
vt 0.794133 0.000000
vt 0.794133 0.216707
vt 0.756230 0.652163
vt 0.786039 0.438429
vt 0.792940 0.652163
vt 0.324409 0.998067
vt 0.357192 0.903090
vt 0.368558 0.998067
vt 0.472365 0.726898
vt 0.472365 0.822849
vt 0.445902 0.780443
vt 0.244303 0.837658
vt 0.244303 0.940461
vt 0.203515 0.857933
vt 0.324409 0.472734
vt 0.324409 0.568685
vt 0.297946 0.526278
vt 0.593984 1.000000
vt 0.626766 0.905023
vt 0.638131 1.000000
vt 0.324409 0.664638
vt 0.324409 0.760588
vt 0.297946 0.718181
vt 0.246719 0.998090
vt 0.279501 0.903112
vt 0.290867 0.998090
vt 0.324409 0.568685
vt 0.324409 0.664638
vt 0.297946 0.622230
vt 0.833008 0.872470
vt 0.833008 0.975272
vt 0.792220 0.892745
vt 0.246719 0.727162
vt 0.246719 0.823112
vt 0.220256 0.780705
vt 0.052350 0.744078
vt 0.102157 0.726671
vt 0.102157 0.949320
vt 0.715974 0.434629
vt 0.767849 0.220859
vt 0.767850 0.434629
vt 0.399650 0.522749
vt 0.471889 0.472734
vt 0.471889 0.726898
vt 0.640341 0.475320
vt 0.640341 0.729484
vt 0.587824 0.511680
vt 0.474712 0.425298
vt 0.546933 0.220859
vt 0.546933 0.475320
vt 0.599435 0.220859
vt 0.599436 0.475320
vt 0.546933 0.438955
vt 0.221156 0.221098
vt 0.103316 0.221098
vt 0.203607 0.000000
vt 0.399649 0.220859
vt 0.399650 0.472592
vt 0.324409 0.270010
vt 0.221156 0.220859
vt 0.238704 0.000000
vt 0.338995 0.220859
vt 0.075223 0.252378
vt 0.075223 0.503901
vt 0.000000 0.454710
vt 0.324409 0.523050
vt 0.396420 0.472592
vt 0.396420 0.727732
vt 0.052350 0.503901
vt 0.052350 0.759041
vt 0.000000 0.540582
vt 0.221156 0.676719
vt 0.293212 0.472734
vt 0.293212 0.727162
vt 0.651818 0.220859
vt 0.651818 0.475287
vt 0.599436 0.438617
vt 0.221156 0.289007
vt 0.324409 0.220859
vt 0.324409 0.472734
vt 0.474712 0.220859
vt 0.474712 0.472734
vt 0.399650 0.270400
vt 0.756563 0.866152
vt 0.756563 0.968955
vt 0.715775 0.886428
vt 0.397408 0.727732
vt 0.397408 0.823683
vt 0.370945 0.781277
vt 0.514693 0.068239
vt 0.578066 0.000000
vt 0.578066 0.181245
vt 0.426703 0.000000
vt 0.426703 0.181245
vt 0.338995 0.094440
vt 0.474712 0.727421
vt 0.537939 0.615131
vt 0.537939 0.795857
vt 0.474712 0.615131
vt 0.570141 0.475320
vt 0.587824 0.615131
vt 0.246719 0.773216
vt 0.293212 0.727162
vt 0.293212 0.903112
vt 0.704687 0.652291
vt 0.704687 0.828241
vt 0.640341 0.716030
vt 0.324409 0.857119
vt 0.370945 0.727732
vt 0.370945 0.903090
vt 0.706051 0.000000
vt 0.706051 0.175358
vt 0.641645 0.111734
vt 0.103316 0.682934
vt 0.166833 0.614888
vt 0.166833 0.795052
vt 0.215313 0.614888
vt 0.103316 0.494907
vt 0.215313 0.473476
vt 0.578066 0.112415
vt 0.641645 0.000000
vt 0.641645 0.180379
vt 0.514693 0.000000
vt 0.514694 0.180379
vt 0.426703 0.086318
vt 0.593984 0.775690
vt 0.640341 0.729484
vt 0.640341 0.905023
vt 0.715974 0.220859
vt 0.715974 0.396398
vt 0.651818 0.284806
vt 0.399650 0.857464
vt 0.445902 0.726898
vt 0.445902 0.903869
vt 0.704354 0.475320
vt 0.704354 0.652291
vt 0.640341 0.588068
vt 0.000000 0.184366
vt 0.103316 0.000000
vt 0.103316 0.252378
vt 0.178424 0.221098
vt 0.178424 0.473476
vt 0.103316 0.424033
vn 0.0000 0.1074 -0.9942
vn 0.0000 0.1075 -0.9942
vn -0.7071 0.7030 0.0760
vn -0.3827 0.9185 0.0993
vn 0.3827 0.9185 0.0993
vn 0.7071 0.7030 0.0760
vn -0.3827 -0.9185 -0.0993
vn -0.7071 -0.7030 -0.0760
vn 1.0000 -0.0000 -0.0000
vn -1.0000 0.0000 0.0000
vn 0.7071 -0.7030 -0.0760
vn 0.3827 -0.9185 -0.0993
vn 0.9754 0.0255 -0.2189
vn 0.6915 -0.6626 -0.2876
vn 0.9754 0.0215 -0.2193
vn 0.6895 -0.6646 -0.2878
vn -0.6879 0.7100 -0.1505
vn -0.6899 0.7080 -0.1507
vn -0.9754 0.0255 -0.2189
vn -0.9754 0.0215 -0.2193
vn 0.6879 0.7100 -0.1505
vn 0.6899 0.7080 -0.1507
vn -0.6915 -0.6626 -0.2876
vn -0.6895 -0.6646 -0.2878
vn 0.3740 0.9205 -0.1134
vn -0.3752 -0.8794 -0.2931
vn 0.3752 -0.8794 -0.2931
vn 0.6589 -0.6912 0.2966
vn 0.3588 -0.8985 0.2528
vn 0.6558 -0.6944 0.2963
vn -0.3619 0.8337 0.4170
vn -0.6600 0.6219 0.4214
vn -0.6632 0.6187 0.4211
vn 0.9327 -0.0352 0.3590
vn 0.6589 -0.6913 0.2966
vn 0.9327 -0.0415 0.3583
vn 0.6590 -0.6912 0.2966
vn -0.9327 -0.0352 0.3590
vn -0.9326 -0.0415 0.3584
vn 0.6600 0.6219 0.4214
vn 0.6632 0.6187 0.4211
vn -0.6589 -0.6913 0.2966
vn -0.6590 -0.6912 0.2966
vn -0.6558 -0.6944 0.2963
vn 0.3619 0.8337 0.4170
vn -0.6589 -0.6912 0.2966
vn -0.3588 -0.8985 0.2528
vn -0.3740 0.9205 -0.1134
usemtl Material.001
s 1
f 1/1/1 2/2/1 3/3/1
f 4/4/1 5/5/1 6/6/1
f 7/7/2 8/8/2 9/9/2
f 10/10/2 11/11/2 12/12/2
f 13/13/2 14/14/2 15/15/2
f 16/16/1 17/17/1 18/18/1
f 19/19/2 20/20/2 21/21/2
f 22/22/2 23/23/2 24/24/2
f 25/25/1 26/26/1 27/27/1
f 28/28/1 29/29/1 30/30/1
f 31/31/3 32/32/4 33/33/3
f 34/34/3 35/35/4 36/36/4
f 37/37/5 38/38/6 39/39/5
f 40/40/5 41/41/6 42/42/6
f 43/43/7 44/44/8 45/45/7
f 46/46/7 47/47/8 48/48/8
f 49/49/6 50/50/9 51/51/6
f 52/52/6 53/53/9 54/54/9
f 55/55/8 56/56/10 57/57/8
f 58/58/8 59/59/10 60/60/10
f 61/61/9 62/62/11 63/63/9
f 64/64/9 65/65/11 66/66/11
f 67/67/10 68/68/3 69/69/10
f 70/70/10 71/71/3 72/72/3
f 73/73/1 74/74/1 75/75/1
f 76/76/2 77/77/2 78/78/2
f 79/79/2 80/80/2 81/81/2
f 82/82/2 83/83/2 84/84/2
f 85/85/1 86/86/1 87/87/1
f 88/88/1 89/89/1 90/90/1
f 91/91/1 92/92/1 93/93/1
f 94/94/2 95/95/2 96/96/2
f 97/97/2 98/98/2 99/99/2
f 100/100/1 101/101/1 102/102/1
f 103/103/11 104/104/12 105/105/11
f 106/106/11 107/107/12 108/108/12
f 109/109/13 110/110/14 111/111/15
f 112/112/15 113/113/14 114/114/16
f 115/115/17 116/116/18 117/117/19
f 118/118/19 119/119/18 120/120/20
f 121/121/21 122/122/13 123/123/22
f 124/124/22 125/125/13 126/126/15
f 127/127/19 128/128/20 129/129/23
f 130/130/23 131/131/20 132/132/24
f 133/133/25 134/134/21 135/135/25
f 136/136/25 137/137/21 138/138/22
f 139/139/23 140/140/24 141/141/26
f 142/142/26 143/143/24 144/144/26
f 145/145/14 146/146/27 147/147/16
f 148/148/16 149/149/27 150/150/27
f 151/151/1 152/152/1 153/153/1
f 154/154/1 155/155/1 156/156/1
f 157/157/28 158/158/29 159/159/30
f 160/160/30 161/161/29 162/162/29
f 163/163/31 164/164/31 165/165/32
f 166/166/32 167/167/31 168/168/33
f 169/169/34 170/170/35 171/171/36
f 172/172/36 173/173/37 174/174/30
f 175/175/32 176/176/33 177/177/38
f 178/178/38 179/179/33 180/180/39
f 181/181/40 182/182/34 183/183/41
f 184/184/41 185/185/34 186/186/36
f 187/187/38 188/188/39 189/189/42
f 190/190/43 191/191/39 192/192/44
f 193/193/45 194/194/40 195/195/45
f 196/196/45 197/197/40 198/198/41
f 199/199/46 200/200/44 201/201/47
f 202/202/47 203/203/44 204/204/47
f 205/205/48 206/206/48 207/207/17
f 208/208/17 209/209/48 210/210/18
